<svg width="21" height="20" viewBox="0 0 21 20" fill="none" xmlns="http://www.w3.org/2000/svg">
<path d="M7.27622 20.0002C8.06519 20.0002 8.70478 19.3606 8.70478 18.5716C8.70478 17.7827 8.06519 17.1431 7.27622 17.1431C6.48724 17.1431 5.84766 17.7827 5.84766 18.5716C5.84766 19.3606 6.48724 20.0002 7.27622 20.0002Z" fill="#636363"/>
<path d="M17.2762 20.0002C18.0652 20.0002 18.7048 19.3606 18.7048 18.5716C18.7048 17.7827 18.0652 17.1431 17.2762 17.1431C16.4872 17.1431 15.8477 17.7827 15.8477 18.5716C15.8477 19.3606 16.4872 20.0002 17.2762 20.0002Z" fill="#636363"/>
<path d="M20.1327 3.57155H4.28993L3.70422 0.57157C3.67082 0.407802 3.58106 0.260931 3.45054 0.156521C3.32003 0.0521115 3.15704 -0.00322461 2.98993 0.000145313H0.132812V1.42871H2.40422L5.13278 15.1429C5.16617 15.3067 5.25593 15.4535 5.38645 15.5579C5.51696 15.6624 5.67995 15.7177 5.84706 15.7143H18.7041V14.2858H6.43277L5.84706 11.4286H18.7041C18.8692 11.4327 19.0306 11.3794 19.1609 11.2778C19.2911 11.1762 19.3821 11.0326 19.4184 10.8715L20.8469 4.44297C20.8709 4.33699 20.8703 4.22694 20.8453 4.12121C20.8203 4.01548 20.7715 3.91684 20.7026 3.83281C20.6338 3.74878 20.5466 3.68157 20.4478 3.6363C20.3491 3.59102 20.2413 3.56888 20.1327 3.57155ZM18.1327 10.0001H5.57563L4.57564 5.00011H19.2398L18.1327 10.0001Z" fill="#636363"/>
</svg>
