<svg width="14" height="15" viewBox="0 0 14 15" fill="none" xmlns="http://www.w3.org/2000/svg">
<path d="M7.23685 0.580566C7.81585 0.580528 8.37293 0.806716 8.79379 1.21273C9.21465 1.61875 9.46739 2.17381 9.50017 2.76405L9.50366 2.89509H13.1654C13.298 2.89513 13.4256 2.94654 13.5224 3.03893C13.6192 3.13131 13.6781 3.25779 13.6872 3.3928C13.6962 3.52782 13.6547 3.6613 13.5711 3.76627C13.4874 3.87125 13.3679 3.9399 13.2366 3.95834L13.1654 3.96333H12.6102L11.7175 13.2357C11.6727 13.6979 11.4685 14.1289 11.1413 14.4517C10.8141 14.7744 10.3852 14.9679 9.93122 14.9975L9.80846 15.0018H4.66524C4.21011 15.0018 3.76981 14.8365 3.42303 14.5356C3.07625 14.2346 2.8456 13.8175 2.77228 13.3589L2.75624 13.2349L1.86276 3.96333H1.30827C1.18186 3.96332 1.05972 3.91658 0.964457 3.83175C0.869189 3.74691 0.80723 3.62972 0.790039 3.50185L0.785156 3.42921C0.785162 3.30014 0.830941 3.17544 0.914028 3.07816C0.997115 2.98089 1.11189 2.91763 1.23712 2.90007L1.30827 2.89509H4.97004C4.97004 2.28124 5.20886 1.69253 5.63397 1.25847C6.05908 0.824417 6.63565 0.580566 7.23685 0.580566ZM11.5591 3.96333H2.91387L3.79757 13.1303C3.81714 13.3348 3.90542 13.5261 4.04743 13.6718C4.18944 13.8174 4.37642 13.9084 4.57666 13.9293L4.66524 13.9336H9.80846C10.2269 13.9336 10.582 13.6309 10.6629 13.22L10.6768 13.1303L11.5584 3.96333H11.5591ZM8.45744 5.92177C8.58385 5.92178 8.70598 5.96852 8.80125 6.05335C8.89652 6.13819 8.95848 6.25538 8.97567 6.38325L8.98055 6.45589V11.441C8.98051 11.5763 8.93016 11.7066 8.83968 11.8055C8.7492 11.9044 8.62532 11.9645 8.4931 11.9737C8.36087 11.983 8.23014 11.9406 8.12732 11.8552C8.02451 11.7698 7.95728 11.6477 7.93921 11.5137L7.93433 11.441V6.45589C7.93433 6.31423 7.98944 6.17838 8.08755 6.07821C8.18565 5.97804 8.3187 5.92177 8.45744 5.92177ZM6.01626 5.92177C6.14267 5.92178 6.2648 5.96852 6.36007 6.05335C6.45534 6.13819 6.5173 6.25538 6.53449 6.38325L6.53937 6.45589V11.441C6.53933 11.5763 6.48898 11.7066 6.3985 11.8055C6.30801 11.9044 6.18414 11.9645 6.05191 11.9737C5.91968 11.983 5.78896 11.9406 5.68614 11.8552C5.58333 11.7698 5.5161 11.6477 5.49803 11.5137L5.49315 11.441V6.45589C5.49315 6.31423 5.54826 6.17838 5.64636 6.07821C5.74447 5.97804 5.87752 5.92177 6.01626 5.92177ZM7.23685 1.64881C6.93052 1.64882 6.6354 1.76644 6.41006 1.97831C6.18473 2.19018 6.04565 2.48082 6.02044 2.79254L6.01626 2.89509H8.45744C8.45744 2.56455 8.32884 2.24756 8.09994 2.01383C7.87103 1.78011 7.56057 1.64881 7.23685 1.64881Z" fill="#73C167"/>
</svg>
