<svg width="21" height="23" viewBox="0 0 21 23" fill="none" xmlns="http://www.w3.org/2000/svg">
<path d="M10.8634 7.69955e-09C11.7609 -5.99906e-05 12.6243 0.350532 13.2767 0.979855C13.929 1.60918 14.3207 2.46952 14.3716 3.3844L14.377 3.58751H20.0527C20.2581 3.58757 20.4559 3.66726 20.606 3.81046C20.7561 3.95366 20.8474 4.1497 20.8614 4.35897C20.8754 4.56824 20.8111 4.77513 20.6814 4.93785C20.5518 5.10056 20.3665 5.20696 20.163 5.23556L20.0527 5.24328H19.1922L17.8084 19.6154C17.739 20.3319 17.4225 20.9999 16.9154 21.5002C16.4082 22.0004 15.7434 22.3003 15.0397 22.3463L14.8494 22.3529H6.87741C6.17195 22.3529 5.48949 22.0968 4.95199 21.6302C4.41448 21.1637 4.05696 20.5173 3.94332 19.8064L3.91845 19.6143L2.53357 5.24328H1.6741C1.47817 5.24327 1.28886 5.17082 1.1412 5.03933C0.993532 4.90783 0.897496 4.72619 0.870849 4.52799L0.863281 4.4154C0.86329 4.21534 0.934247 4.02205 1.06303 3.87127C1.19182 3.7205 1.36972 3.62244 1.56383 3.59524L1.6741 3.58751H7.34985C7.34985 2.63604 7.72003 1.72355 8.37895 1.05076C9.03787 0.377968 9.93155 7.69955e-09 10.8634 7.69955e-09ZM17.5629 5.24328H4.16278L5.53253 19.452C5.56286 19.7691 5.69969 20.0656 5.9198 20.2914C6.13991 20.5171 6.42975 20.6582 6.74011 20.6905L6.87741 20.6972H14.8494C15.4981 20.6972 16.0483 20.228 16.1737 19.5911L16.1954 19.452L17.5619 5.24328H17.5629ZM12.7553 8.27887C12.9513 8.27888 13.1406 8.35133 13.2882 8.48282C13.4359 8.61432 13.5319 8.79596 13.5586 8.99416L13.5661 9.10675V16.8337C13.5661 17.0435 13.488 17.2454 13.3478 17.3986C13.2075 17.5519 13.0155 17.6451 12.8106 17.6594C12.6056 17.6737 12.403 17.608 12.2436 17.4757C12.0843 17.3433 11.9801 17.1541 11.9521 16.9463L11.9445 16.8337V9.10675C11.9445 8.88718 12.0299 8.67661 12.182 8.52135C12.334 8.36609 12.5403 8.27887 12.7553 8.27887ZM8.97149 8.27887C9.16743 8.27888 9.35673 8.35133 9.50439 8.48282C9.65206 8.61432 9.7481 8.79596 9.77474 8.99416L9.78231 9.10675V16.8337C9.78225 17.0435 9.70421 17.2454 9.56396 17.3986C9.42371 17.5519 9.23171 17.6451 9.02676 17.6594C8.8218 17.6737 8.61917 17.608 8.45981 17.4757C8.30045 17.3433 8.19624 17.1541 8.16824 16.9463L8.16067 16.8337V9.10675C8.16067 8.88718 8.2461 8.67661 8.39815 8.52135C8.55021 8.36609 8.75645 8.27887 8.97149 8.27887ZM10.8634 1.65577C10.3886 1.65579 9.93116 1.8381 9.58189 2.1665C9.23261 2.49491 9.01705 2.9454 8.97798 3.42855L8.97149 3.58751H12.7553C12.7553 3.07518 12.556 2.58384 12.2012 2.22157C11.8464 1.8593 11.3652 1.65577 10.8634 1.65577Z" fill="#636363"/>
</svg>
