<svg width="21" height="20" viewBox="0 0 21 20" fill="none" xmlns="http://www.w3.org/2000/svg">
<path d="M10.5 12C16.02 12 20.5 14.0933 20.5 16.6667V20H0.5V16.6667C0.5 14.0933 4.98 12 10.5 12ZM19.1667 16.6667C19.1667 14.8267 15.2867 13.3333 10.5 13.3333C5.71333 13.3333 1.83333 14.8267 1.83333 16.6667V18.6667H19.1667V16.6667ZM10.5 0C11.7377 0 12.9247 0.491666 13.7998 1.36684C14.675 2.24201 15.1667 3.42899 15.1667 4.66667C15.1667 5.90434 14.675 7.09133 13.7998 7.9665C12.9247 8.84167 11.7377 9.33333 10.5 9.33333C9.26232 9.33333 8.07534 8.84167 7.20017 7.9665C6.325 7.09133 5.83333 5.90434 5.83333 4.66667C5.83333 3.42899 6.325 2.24201 7.20017 1.36684C8.07534 0.491666 9.26232 0 10.5 0ZM10.5 1.33333C9.61594 1.33333 8.7681 1.68452 8.14298 2.30964C7.51786 2.93477 7.16667 3.78261 7.16667 4.66667C7.16667 5.55072 7.51786 6.39857 8.14298 7.02369C8.7681 7.64881 9.61594 8 10.5 8C11.3841 8 12.2319 7.64881 12.857 7.02369C13.4821 6.39857 13.8333 5.55072 13.8333 4.66667C13.8333 3.78261 13.4821 2.93477 12.857 2.30964C12.2319 1.68452 11.3841 1.33333 10.5 1.33333Z" fill="#73C167"/>
</svg>
