<svg width="80" height="80" viewBox="0 0 80 80" fill="none" xmlns="http://www.w3.org/2000/svg">
<path d="M10 60H35V65H10V60ZM10 45H35V50H10V45ZM65 35H15C13.6739 35 12.4021 34.4732 11.4645 33.5355C10.5268 32.5979 10 31.3261 10 30V15C10 13.6739 10.5268 12.4021 11.4645 11.4645C12.4021 10.5268 13.6739 10 15 10H65C66.3261 10 67.5979 10.5268 68.5355 11.4645C69.4732 12.4021 70 13.6739 70 15V30C70 31.3261 69.4732 32.5979 68.5355 33.5355C67.5979 34.4732 66.3261 35 65 35ZM15 15V30H65V15H15ZM65 70H50C48.6739 70 47.4021 69.4732 46.4645 68.5355C45.5268 67.5979 45 66.3261 45 65V50C45 48.6739 45.5268 47.4021 46.4645 46.4645C47.4021 45.5268 48.6739 45 50 45H65C66.3261 45 67.5979 45.5268 68.5355 46.4645C69.4732 47.4021 70 48.6739 70 50V65C70 66.3261 69.4732 67.5979 68.5355 68.5355C67.5979 69.4732 66.3261 70 65 70ZM50 50V65H65V50H50Z" fill="#73C167"/>
</svg>
