<svg width="40" height="40" viewBox="0 0 40 40" fill="none" xmlns="http://www.w3.org/2000/svg">
<rect x="0.5" y="0.5" width="39" height="39" rx="3.5" stroke="#73C167"/>
<path d="M20.5 25.61L15.4457 20.5543L16.4557 19.5271L19.7857 22.8571V10.5H21.2143V22.8571L24.5429 19.5286L25.5543 20.5543L20.5 25.61ZM12.8071 30.5C12.15 30.5 11.6014 30.28 11.1614 29.84C10.7205 29.399 10.5 28.85 10.5 28.1929V24.7314H11.9286V28.1929C11.9286 28.4119 12.02 28.6133 12.2029 28.7971C12.3867 28.98 12.5881 29.0714 12.8071 29.0714H28.1929C28.4119 29.0714 28.6133 28.98 28.7971 28.7971C28.98 28.6133 29.0714 28.4119 29.0714 28.1929V24.7314H30.5V28.1929C30.5 28.85 30.28 29.3986 29.84 29.8386C29.399 30.2795 28.85 30.5 28.1929 30.5H12.8071Z" fill="#73C167"/>
</svg>
