<?xml version="1.0"?>
<svg width="23.999999999999996" height="17" xmlns="http://www.w3.org/2000/svg" xmlns:svg="http://www.w3.org/2000/svg">
 <g class="layer">
  <title>Layer 1</title>
  <path d="m23.95,8.19c-0.04,-0.07 -0.98,-0.76 -2.98,-0.83c-2,-0.08 -4.5,-0.14 -8.92,-0.14c-4.42,0 -5.87,0.07 -8.05,0.12c-2.19,0.05 -3.95,0.79 -3.98,0.86c-0.03,0.06 -0.04,0.11 -0.04,0.17c0,0.06 0.01,0.12 0.04,0.17c0.03,0.08 1.01,0.77 3.82,0.78c2.81,0.01 3.62,-0.01 8.03,-0.01c4.42,0 5.63,-0.14 8.69,-0.08c3.06,0.06 3.35,-0.61 3.39,-0.69c0.02,-0.05 0.03,-0.11 0.03,-0.17c0,-0.06 -0.01,-0.11 -0.03,-0.17zm-4.96,0.08c-3.45,-0.04 -3.88,-0.27 -7.19,-0.27c-3.31,0 -2.9,0.27 -6.47,0.27c-3.57,0 -5.17,0.11 -4.48,0.09c0.69,-0.02 4.44,-0.12 6.53,-0.1c2.09,0.01 1.19,-0.01 4.5,-0.01c3.31,0 6.84,0.09 7.16,0.1c0.31,0.01 4.19,-0.03 4.09,-0.03c-0.1,-0.01 -0.72,-0.06 -2.9,-0.18l-1.24,0.14zm-6.64,-0.43c-0.9,0 -1.64,0.16 -2.23,0.09c-0.59,-0.07 -1.6,-0.95 -2.08,-0.31c-0.48,0.65 -0.51,0.34 -0.33,1.22c0.17,0.88 1.79,-1.16 2.42,-0.52c0.64,0.64 0.56,-0.59 1.44,-0.41c0.89,0.17 2.16,0.85 2.99,0.51c0.84,-0.35 0.87,0.44 1.07,0.44c0.2,0 0.9,0.4 0.9,-0.5c0,-1.2 0.73,-0.87 -1.44,-0.8c-2.17,0.07 -1.53,0.28 -2.74,0.28zm-0.43,0.38c-0.71,-0.2 -1.29,0.44 -1.91,0.03c-0.61,-0.41 -0.61,-0.17 -0.69,-0.26c-0.08,-0.09 -1.12,0.37 -0.98,-0.35c0.14,-0.73 1.37,1.11 1.89,0.59c0.52,-0.52 -1.73,-0.06 1.43,0.28c3.17,0.34 0.47,-0.5 1.54,-0.06c1.07,0.44 0.96,-0.9 1.37,-0.29c0.41,0.62 1.15,-0.53 1.15,0.2c0,0.99 -0.91,-0.92 -1.36,-0.27c-0.45,0.64 -1.73,0.34 -2.44,0.13z" fill="#767676" id="svg_1"/>
 </g>
</svg>