<svg width="24" height="17" viewBox="0 0 24 17" fill="none" xmlns="http://www.w3.org/2000/svg">
<path d="M23.967 8.19464C23.9319 8.11602 23.0856 6.24046 21.1915 4.34629C19.4369 2.59177 16.4193 0.5 12.002 0.5C7.58462 0.5 4.56697 2.59177 2.81245 4.34629C0.918272 6.24046 0.0720482 8.11602 0.036875 8.19464C0.0138397 8.24769 0.00195313 8.30491 0.00195312 8.36275C0.00195312 8.42059 0.0138397 8.47781 0.036875 8.53086C0.0720482 8.61051 0.918272 10.485 2.81245 12.3792C4.57111 14.1379 7.58565 16.2245 12.002 16.2245C16.4183 16.2245 19.4369 14.1337 21.1915 12.3792C23.0856 10.485 23.9319 8.61051 23.967 8.53086C23.9901 8.47781 24.002 8.42059 24.002 8.36275C24.002 8.30491 23.9901 8.24769 23.967 8.19464ZM20.5842 11.8154C18.1976 14.1948 15.3082 15.3969 11.9978 15.3969C8.6874 15.3969 5.80217 14.1917 3.41143 11.8154C2.39419 10.8009 1.53869 9.6363 0.874824 8.36223C1.53993 7.08787 2.39684 5.92323 3.41557 4.90906C5.80631 2.5328 8.69154 1.3276 12.002 1.3276C15.3124 1.3276 18.1976 2.5328 20.5883 4.90906C21.6069 5.92334 22.4638 7.08796 23.1291 8.36223C22.4639 9.63658 21.607 10.8012 20.5883 11.8154H20.5842ZM12.002 3.81041C11.1017 3.81041 10.2216 4.07737 9.4731 4.57753C8.72456 5.07769 8.14114 5.78859 7.79662 6.62033C7.4521 7.45206 7.36196 8.36728 7.5376 9.25025C7.71323 10.1332 8.14675 10.9443 8.78333 11.5809C9.41991 12.2174 10.231 12.651 11.1139 12.8266C11.9969 13.0022 12.9121 12.9121 13.7439 12.5676C14.5756 12.223 15.2865 11.6396 15.7867 10.8911C16.2868 10.1425 16.5538 9.2625 16.5538 8.36223C16.5524 7.15544 16.0724 5.99846 15.2191 5.14512C14.3657 4.29179 13.2088 3.81178 12.002 3.81041ZM12.002 12.0864C11.2654 12.0864 10.5453 11.868 9.93289 11.4588C9.32045 11.0496 8.8431 10.4679 8.56123 9.78743C8.27935 9.10692 8.2056 8.3581 8.3493 7.63567C8.493 6.91325 8.84769 6.24966 9.36854 5.72882C9.88938 5.20797 10.553 4.85328 11.2754 4.70958C11.9978 4.56588 12.7466 4.63963 13.4271 4.92151C14.1077 5.20338 14.6893 5.68073 15.0985 6.29317C15.5077 6.90561 15.7262 7.62565 15.7262 8.36223C15.7262 9.34996 15.3338 10.2972 14.6354 10.9957C13.9369 11.6941 12.9897 12.0864 12.002 12.0864Z" fill="#767676"/>
</svg>
