<?xml version="1.0" encoding="UTF-8" standalone="no"?>
<svg
   width="76"
   height="76"
   viewBox="0 0 76 76"
   fill="none"
   version="1.1"
   id="svg5"
   xml:space="preserve"
   xmlns="http://www.w3.org/2000/svg"
   xmlns:svg="http://www.w3.org/2000/svg"><defs
     id="defs5" /><path
     d="M73.9375 72.375H48.1431C49.8184 71.4066 51.3838 70.2244 52.8022 68.8408C64.1844 57.7372 61.4333 38.7562 47.375 31.3297V11.4375H52.0625C52.9253 11.4375 53.625 10.738 53.625 9.875V2.0625C53.625 1.19953 52.9253 0.5 52.0625 0.5H20.8125C19.9495 0.5 19.25 1.19953 19.25 2.0625V9.875C19.25 10.738 19.9495 11.4375 20.8125 11.4375H25.5V31.3302C17.9961 35.2991 13 43.153 13 52.0625C13 60.7347 17.7347 68.3217 24.7547 72.375H2.0625C1.19953 72.375 0.5 73.0747 0.5 73.9375C0.5 74.8003 1.19953 75.5 2.0625 75.5H73.9375C74.8003 75.5 75.5 74.8003 75.5 73.9375C75.5 73.0747 74.8003 72.375 73.9375 72.375ZM22.375 3.625H50.5V8.3125C44.3792 8.3125 28.5403 8.3125 22.375 8.3125V3.625ZM27.733 33.7052C28.2778 33.4464 28.625 32.897 28.625 32.2939V11.4375H44.25V32.2937C44.25 32.8969 44.5972 33.4462 45.142 33.705C52.1203 37.0203 56.655 44.1114 56.7484 51.8194C52.6925 54.3855 47.2123 53.8677 42.5692 52.5764C40.0691 51.8809 38.2962 51.1409 36.4037 50.3537C30.5647 47.925 22.8263 45.0969 16.773 46.9781C18.2716 41.2297 22.2955 36.2884 27.733 33.7052ZM16.1819 50.5484C17.7275 49.8383 19.1345 49.5242 20.6962 49.4709C25.3483 49.3073 31.5566 51.6942 35.8288 53.5017C42.1987 56.1966 50.1248 58.1911 56.4675 55.4867C54.857 65.1592 46.5509 72.375 36.4375 72.375C24.6861 72.375 15.3009 62.3603 16.1819 50.5484Z"
     fill="#73C167"
     id="flask" /><path
     d="M42.6875 45.8125C45.2722 45.8125 47.375 43.7097 47.375 41.125C47.375 38.5403 45.2722 36.4375 42.6875 36.4375C40.1028 36.4375 38 38.5403 38 41.125C38 43.7097 40.1028 45.8125 42.6875 45.8125ZM42.6875 39.5625C43.5491 39.5625 44.25 40.2634 44.25 41.125C44.25 41.9866 43.5491 42.6875 42.6875 42.6875C41.8259 42.6875 41.125 41.9866 41.125 41.125C41.125 40.2634 41.8259 39.5625 42.6875 39.5625Z"
     fill="#73C167"
     id="path2" /><path
     d="M30.1875 55.1875C27.6028 55.1875 25.5 57.2903 25.5 59.875C25.5 62.4597 27.6028 64.5625 30.1875 64.5625C32.7722 64.5625 34.875 62.4597 34.875 59.875C34.875 57.2903 32.7722 55.1875 30.1875 55.1875ZM30.1875 61.4375C29.3259 61.4375 28.625 60.7366 28.625 59.875C28.625 59.0134 29.3259 58.3125 30.1875 58.3125C31.0491 58.3125 31.75 59.0134 31.75 59.875C31.75 60.7366 31.0491 61.4375 30.1875 61.4375Z"
     fill="#73C167"
     id="path3" /><path
     d="M66.125 25.5C68.7097 25.5 70.8125 23.3972 70.8125 20.8125C70.8125 18.2278 68.7097 16.125 66.125 16.125C63.5403 16.125 61.4375 18.2278 61.4375 20.8125C61.4375 23.3972 63.5403 25.5 66.125 25.5ZM66.125 19.25C66.9866 19.25 67.6875 19.9509 67.6875 20.8125C67.6875 21.6741 66.9866 22.375 66.125 22.375C65.2634 22.375 64.5625 21.6741 64.5625 20.8125C64.5625 19.9509 65.2634 19.25 66.125 19.25Z"
     fill="#73C167"
     id="path4" /><path
     d="M13 27.0625C15.5847 27.0625 17.6875 24.9597 17.6875 22.375C17.6875 19.7903 15.5847 17.6875 13 17.6875C10.4153 17.6875 8.3125 19.7903 8.3125 22.375C8.3125 24.9597 10.4153 27.0625 13 27.0625ZM13 20.8125C13.8616 20.8125 14.5625 21.5134 14.5625 22.375C14.5625 23.2366 13.8616 23.9375 13 23.9375C12.1384 23.9375 11.4375 23.2366 11.4375 22.375C11.4375 21.5134 12.1384 20.8125 13 20.8125Z"
     fill="#73C167"
     id="path5" /><path
     style="fill:#73c167"
     id="flaskCircle"
     d="M 49.987819,38 A 12.034104,10.42631 0 0 1 38.233296,48.423495 12.034104,10.42631 0 0 1 25.932601,38.484325 12.034104,10.42631 0 0 1 37.115576,27.599008 12.034104,10.42631 0 0 1 49.935885,37.032395" /></svg>
