<svg width="25" height="25" viewBox="0 0 25 25" fill="none" xmlns="http://www.w3.org/2000/svg">
<path d="M12.4998 20.8999L12.1158 20.4679C11.8758 20.2279 6.25977 13.6039 6.25977 9.61988C6.25977 6.16388 9.04377 3.37988 12.4998 3.37988C15.9558 3.37988 18.7398 6.16388 18.7398 9.61988C18.7398 13.6039 13.1238 20.2279 12.8838 20.5159L12.4998 20.8999ZM12.4998 4.33988C9.57177 4.33988 7.21977 6.69188 7.21977 9.61988C7.21977 12.6919 11.2518 17.8759 12.4998 19.4119C13.7478 17.8759 17.7798 12.6919 17.7798 9.61988C17.7798 6.69188 15.4278 4.33988 12.4998 4.33988Z" fill="#767676"/>
<path d="M12.4996 12.0197C11.1556 12.0197 10.0996 10.9637 10.0996 9.61973C10.0996 8.27573 11.1556 7.21973 12.4996 7.21973C13.8436 7.21973 14.8996 8.27573 14.8996 9.61973C14.8996 10.9637 13.8436 12.0197 12.4996 12.0197ZM12.4996 8.17973C11.6836 8.17973 11.0596 8.80373 11.0596 9.61973C11.0596 10.4357 11.6836 11.0597 12.4996 11.0597C13.3156 11.0597 13.9396 10.4357 13.9396 9.61973C13.9396 8.80373 13.3156 8.17973 12.4996 8.17973Z" fill="#767676"/>
</svg>
