<svg width="25" height="25" viewBox="0 0 25 25" fill="none" xmlns="http://www.w3.org/2000/svg">
<path d="M21.1981 15.6997L16.7713 13.7188C16.5996 13.6445 16.4122 13.6142 16.226 13.6306C16.0397 13.6469 15.8604 13.7095 15.7044 13.8125C15.6919 13.8204 15.68 13.8292 15.6688 13.8388L13.3438 15.8207C13.292 15.8522 13.2333 15.8705 13.1728 15.874C13.1123 15.8774 13.0519 15.8658 12.9969 15.8403C11.4744 15.1053 9.89845 13.5416 9.16345 12.0369C9.13745 11.9823 9.12538 11.9222 9.12832 11.8618C9.13127 11.8014 9.14914 11.7427 9.18032 11.691L11.1678 9.32753C11.1772 9.31628 11.1856 9.30409 11.1941 9.29191C11.2968 9.1361 11.3592 8.95717 11.3755 8.77125C11.3919 8.58534 11.3618 8.39827 11.2878 8.22691L9.30314 3.80753C9.20732 3.5837 9.04148 3.39699 8.83051 3.27545C8.61954 3.1539 8.37483 3.10408 8.13314 3.13347C6.95336 3.28902 5.87054 3.86872 5.08694 4.76428C4.30334 5.65985 3.87254 6.81005 3.87501 8.00003C3.87501 15.2375 9.76251 21.125 17 21.125C18.19 21.1275 19.3402 20.6967 20.2358 19.9131C21.1313 19.1295 21.711 18.0467 21.8666 16.8669C21.8957 16.6263 21.8464 16.3827 21.726 16.1724C21.6056 15.9621 21.4204 15.7963 21.1981 15.6997ZM21.125 16.7732C20.9926 17.7723 20.5009 18.689 19.7417 19.3519C18.9825 20.0148 18.0079 20.3785 17 20.375C10.1769 20.375 4.62501 14.8232 4.62501 8.00003C4.62152 6.99217 4.98523 6.01754 5.64813 5.25835C6.31103 4.49917 7.22775 4.00742 8.22689 3.87503C8.24187 3.8741 8.2569 3.8741 8.27189 3.87503C8.34587 3.87566 8.41801 3.89816 8.47923 3.9397C8.54045 3.98124 8.58802 4.03996 8.61595 4.10847L10.595 8.52784C10.6181 8.58186 10.6282 8.64054 10.6244 8.69916C10.6207 8.75779 10.6032 8.81471 10.5734 8.86534L8.58689 11.2278C8.57751 11.24 8.56814 11.2513 8.5597 11.2644C8.45386 11.4263 8.39153 11.6126 8.37872 11.8056C8.36591 11.9986 8.40306 12.1916 8.48657 12.366C9.30126 14.0338 10.9813 15.7016 12.6678 16.5163C12.8434 16.5993 13.0375 16.6354 13.2312 16.6211C13.4249 16.6068 13.6116 16.5426 13.7731 16.4347L13.8078 16.4085L16.1356 14.4285C16.1854 14.398 16.2417 14.3799 16.2999 14.3755C16.3581 14.3711 16.4165 14.3806 16.4703 14.4032L20.8963 16.3869C20.971 16.418 21.0336 16.4724 21.0748 16.542C21.116 16.6116 21.1336 16.6927 21.125 16.7732Z" fill="#767676"/>
</svg>
