<svg width="25" height="25" viewBox="0 0 25 25" fill="none" xmlns="http://www.w3.org/2000/svg">
<path d="M5.115 19.5C4.655 19.5 4.271 19.346 3.963 19.038C3.65433 18.7293 3.5 18.345 3.5 17.885V7.115C3.5 6.655 3.65433 6.271 3.963 5.963C4.271 5.65433 4.655 5.5 5.115 5.5H19.885C20.345 5.5 20.729 5.65433 21.037 5.963C21.3457 6.271 21.5 6.655 21.5 7.115V17.885C21.5 18.345 21.346 18.729 21.038 19.037C20.7293 19.3457 20.345 19.5 19.885 19.5H5.115ZM12.5 12.615L4.5 7.385V17.885C4.5 18.0643 4.55767 18.2117 4.673 18.327C4.78833 18.4423 4.93567 18.5 5.115 18.5H19.885C20.0643 18.5 20.2117 18.4423 20.327 18.327C20.4423 18.2117 20.5 18.0643 20.5 17.885V7.385L12.5 12.615ZM12.5 11.5L20.192 6.5H4.808L12.5 11.5ZM4.5 7.385V6.5V17.885C4.5 18.0643 4.55767 18.2117 4.673 18.327C4.78833 18.4423 4.93567 18.5 5.115 18.5H4.5V7.385Z" fill="#767676"/>
</svg>
