<svg width="80" height="80" viewBox="0 0 80 80" fill="none" xmlns="http://www.w3.org/2000/svg">
<path d="M40 2.5C19.275 2.5 2.5 19.2719 2.5 40C2.5 60.7253 19.2719 77.5 40 77.5C60.7255 77.5 77.5 60.728 77.5 40C77.5 19.2747 60.728 2.5 40 2.5ZM40 74.375C21.0455 74.375 5.625 58.9545 5.625 40C5.625 21.0455 21.0455 5.625 40 5.625C58.9545 5.625 74.375 21.0455 74.375 40C74.375 58.9545 58.9545 74.375 40 74.375Z" fill="#73C167"/>
<path d="M40 11.875C24.4919 11.875 11.875 24.4919 11.875 40C11.875 55.5081 24.4919 68.125 40 68.125C55.5081 68.125 68.125 55.5081 68.125 40C68.125 24.4919 55.5081 11.875 40 11.875ZM40 65C26.215 65 15 53.7852 15 40C15 26.215 26.215 15 40 15C53.7852 15 65 26.215 65 40C65 53.7852 53.7852 65 40 65Z" fill="#73C167"/>
<path d="M40 29.9778C42.5847 29.9778 44.6875 27.875 44.6875 25.2903C44.6875 22.7056 42.5847 20.6028 40 20.6028C37.4153 20.6028 35.3125 22.7056 35.3125 25.2903C35.3125 27.875 37.4153 29.9778 40 29.9778ZM40 23.7278C40.8616 23.7278 41.5625 24.4288 41.5625 25.2903C41.5625 26.1519 40.8616 26.8528 40 26.8528C39.1384 26.8528 38.4375 26.1519 38.4375 25.2903C38.4375 24.4288 39.1384 23.7278 40 23.7278Z" fill="#73C167"/>
<path d="M25.9375 36.2278C25.9375 35.3663 26.6384 34.6653 27.5 34.6653C28.363 34.6653 29.0625 33.9658 29.0625 33.1028C29.0625 32.2398 28.363 31.5403 27.5 31.5403C24.9153 31.5403 22.8125 33.6431 22.8125 36.2278C22.8125 37.0908 23.512 37.7903 24.375 37.7903C25.238 37.7903 25.9375 37.0908 25.9375 36.2278Z" fill="#73C167"/>
<path d="M48.003 35.7702C48.6132 35.16 48.6132 34.1706 48.003 33.5603C46.1753 31.7327 43.2014 31.7327 41.3736 33.5603C40.7635 34.1705 40.7635 35.1598 41.3736 35.7702C41.9839 36.3803 42.973 36.3803 43.5835 35.7702C44.1939 35.1595 45.1825 35.1594 45.7933 35.7702C46.0985 36.0753 46.4983 36.2278 46.8982 36.2278C47.298 36.2278 47.6978 36.0753 48.003 35.7702Z" fill="#73C167"/>
<path d="M46.7076 50.1008C46.0975 50.7109 46.0975 51.7003 46.7076 52.3106C47.3171 52.9202 47.3195 53.9084 46.7076 54.5203C46.0975 55.1305 46.0975 56.1198 46.7076 56.7302C47.3181 57.3403 48.307 57.3402 48.9175 56.7302C50.745 54.9025 50.745 51.9288 48.9175 50.1009C48.307 49.4906 47.3179 49.4906 46.7076 50.1008Z" fill="#73C167"/>
<path d="M29.709 49.6431C28.8474 49.6431 28.1465 48.9422 28.1465 48.0806C28.1465 47.2178 27.447 46.5181 26.584 46.5181C25.721 46.5181 25.0215 47.2178 25.0215 48.0806C25.0215 50.6653 27.1243 52.7681 29.709 52.7681C30.572 52.7681 31.2715 52.0684 31.2715 51.2056C31.2715 50.3428 30.572 49.6431 29.709 49.6431Z" fill="#73C167"/>
<path d="M55.625 34.6653C53.0403 34.6653 50.9375 36.7681 50.9375 39.3528C50.9375 41.9375 53.0403 44.0403 55.625 44.0403C58.2097 44.0403 60.3125 41.9375 60.3125 39.3528C60.3125 36.7681 58.2097 34.6653 55.625 34.6653ZM55.625 40.9152C54.7634 40.9152 54.0625 40.2144 54.0625 39.3527C54.0625 38.4909 54.7634 37.7902 55.625 37.7902C56.4866 37.7902 57.1875 38.4911 57.1875 39.3527C57.1875 40.2142 56.4866 40.9152 55.625 40.9152Z" fill="#73C167"/>
<path d="M38.4375 40.9152C35.8528 40.9152 33.75 43.018 33.75 45.6027C33.75 48.1873 35.8528 50.2902 38.4375 50.2902C41.0222 50.2902 43.125 48.1873 43.125 45.6027C43.125 43.018 41.0222 40.9152 38.4375 40.9152ZM38.4375 47.1652C37.5759 47.1652 36.875 46.4642 36.875 45.6027C36.875 44.7411 37.5759 44.0402 38.4375 44.0402C39.2991 44.0402 40 44.7411 40 45.6027C40 46.4642 39.2991 47.1652 38.4375 47.1652Z" fill="#73C167"/>
</svg>
