<svg width="25" height="25" viewBox="0 0 25 25" fill="none" xmlns="http://www.w3.org/2000/svg">
<rect width="25" height="25" fill="#F5F5F5"/>
<rect width="1920" height="3749" transform="translate(-1420 -59)" fill="#F3F3F3"/>
<rect x="-1337" y="-41" width="1754" height="106" rx="53" fill="white" fill-opacity="0.8"/>
<path fill-rule="evenodd" clip-rule="evenodd" d="M11.2605 2.37769C6.28196 2.37769 2.24609 6.41355 2.24609 11.3921C2.24609 16.3705 6.28196 20.4064 11.2605 20.4064C16.239 20.4064 20.2748 16.3705 20.2748 11.3921C20.2748 6.41355 16.239 2.37769 11.2605 2.37769ZM0.746094 11.3921C0.746094 5.58513 5.45354 0.877686 11.2605 0.877686C17.0674 0.877686 21.7748 5.58513 21.7748 11.3921C21.7748 14.0854 20.7622 16.5422 19.0968 18.4024L24.0882 23.2827C24.3844 23.5723 24.3897 24.0472 24.1001 24.3433C23.8105 24.6395 23.3357 24.6449 23.0395 24.3553L18.0192 19.4466C16.1916 20.9818 13.834 21.9064 11.2605 21.9064C5.45354 21.9064 0.746094 17.199 0.746094 11.3921Z" fill="#BBBBBB"/>
</svg>
