<svg width="80" height="80" viewBox="0 0 80 80" fill="none" xmlns="http://www.w3.org/2000/svg">
<path d="M72.5 70H52.5V64.55C53.8212 64.096 54.9893 63.2821 55.8727 62.1999C56.7561 61.1177 57.3197 59.8103 57.5 58.425C61.2599 56.9325 64.427 54.2488 66.5163 50.7848C68.6056 47.3208 69.5019 43.2674 69.0679 39.2455C68.634 35.2235 66.8937 31.4547 64.1136 28.516C61.3334 25.5774 57.6667 23.6311 53.675 22.975C54.8857 20.355 55.1525 17.3966 54.43 14.6023C53.7075 11.8079 52.0402 9.34967 49.7112 7.64488C47.3822 5.94009 44.535 5.09379 41.6529 5.24967C38.7709 5.40554 36.0316 6.55397 33.9 8.5L14.675 27.75L8.95 33.45C8.66151 33.7358 8.44699 34.0876 8.325 34.475L5.125 44.725C4.98923 45.157 4.97333 45.6177 5.079 46.058C5.18468 46.4984 5.40796 46.9017 5.725 47.225L12.75 54.275C13.1117 54.5701 13.5379 54.7759 13.9939 54.8758C14.4499 54.9757 14.923 54.9668 15.375 54.85L26.45 50.8C26.7936 50.6719 27.1081 50.4764 27.375 50.225L32.225 45.375L50 27.625C53.7053 27.6205 57.2761 29.0131 60 31.525C61.4722 33.0963 62.5621 34.986 63.185 37.0471C63.8079 39.1083 63.947 41.2853 63.5915 43.409C63.2359 45.5326 62.3953 47.5456 61.135 49.2915C59.8747 51.0373 58.2287 52.4689 56.325 53.475C55.687 52.4617 54.8156 51.6159 53.7837 51.0084C52.7518 50.4008 51.5895 50.0492 50.3939 49.9828C49.1983 49.9165 48.0042 50.1374 46.9114 50.6271C45.8187 51.1168 44.8591 51.8609 44.1129 52.7974C43.3666 53.7339 42.8555 54.8355 42.6222 56.01C42.3888 57.1844 42.4401 58.3977 42.7717 59.5483C43.1033 60.6989 43.7056 61.7534 44.5282 62.6236C45.3508 63.4937 46.3698 64.1543 47.5 64.55V70H7.5C6.83696 70 6.20107 70.2634 5.73223 70.7322C5.26339 71.2011 5 71.837 5 72.5C5 73.163 5.26339 73.7989 5.73223 74.2678C6.20107 74.7366 6.83696 75 7.5 75H72.5C73.163 75 73.7989 74.7366 74.2678 74.2678C74.7366 73.7989 75 73.163 75 72.5C75 71.837 74.7366 71.2011 74.2678 70.7322C73.7989 70.2634 73.163 70 72.5 70ZM37.5 12.025C38.1581 11.3735 38.9388 10.8591 39.7971 10.5115C40.6554 10.1639 41.5741 9.99005 42.5 10C44.4732 10.0506 46.3516 10.857 47.7473 12.2527C49.143 13.6484 49.9494 15.5268 50 17.5C50.0086 18.4257 49.8341 19.344 49.4866 20.2021C49.139 21.0602 48.6253 21.8411 47.975 22.5L30.475 40L20 29.525L37.5 12.025ZM24.225 46.3L15.175 49.6L10.35 44.775L12.85 36.55L16.325 33.075L26.85 43.6L24.225 46.3ZM50 55C50.4945 55 50.9778 55.1466 51.3889 55.4213C51.8 55.696 52.1205 56.0865 52.3097 56.5433C52.4989 57.0001 52.5484 57.5028 52.452 57.9877C52.3555 58.4727 52.1174 58.9181 51.7678 59.2678C51.4181 59.6174 50.9727 59.8555 50.4877 59.952C50.0028 60.0484 49.5001 59.9989 49.0433 59.8097C48.5865 59.6205 48.196 59.3 47.9213 58.8889C47.6466 58.4778 47.5 57.9945 47.5 57.5C47.5 56.837 47.7634 56.2011 48.2322 55.7322C48.7011 55.2634 49.337 55 50 55Z" fill="#73C167"/>
</svg>
