<svg width="18" height="15" viewBox="0 0 18 15" fill="none" xmlns="http://www.w3.org/2000/svg">
<path d="M13.669 11.7953C14.1193 11.7953 14.5511 11.9599 14.8695 12.2528C15.1879 12.5458 15.3668 12.943 15.3668 13.3573C15.3668 13.7716 15.1879 14.1689 14.8695 14.4618C14.5511 14.7547 14.1193 14.9193 13.669 14.9193C13.2187 14.9193 12.7869 14.7547 12.4685 14.4618C12.1501 14.1689 11.9712 13.7716 11.9712 13.3573C11.9712 12.943 12.1501 12.5458 12.4685 12.2528C12.7869 11.9599 13.2187 11.7953 13.669 11.7953ZM13.669 12.5763C13.4439 12.5763 13.2279 12.6586 13.0687 12.8051C12.9095 12.9515 12.8201 13.1502 12.8201 13.3573C12.8201 13.5644 12.9095 13.7631 13.0687 13.9095C13.2279 14.056 13.4439 14.1383 13.669 14.1383C13.8941 14.1383 14.1101 14.056 14.2693 13.9095C14.4285 13.7631 14.5179 13.5644 14.5179 13.3573C14.5179 13.1502 14.4285 12.9515 14.2693 12.8051C14.1101 12.6586 13.8941 12.5763 13.669 12.5763ZM6.02893 11.7953C6.47921 11.7953 6.91105 11.9599 7.22945 12.2528C7.54784 12.5458 7.72672 12.943 7.72672 13.3573C7.72672 13.7716 7.54784 14.1689 7.22945 14.4618C6.91105 14.7547 6.47921 14.9193 6.02893 14.9193C5.57864 14.9193 5.1468 14.7547 4.8284 14.4618C4.51001 14.1689 4.33113 13.7716 4.33113 13.3573C4.33113 12.943 4.51001 12.5458 4.8284 12.2528C5.1468 11.9599 5.57864 11.7953 6.02893 11.7953ZM6.02893 12.5763C5.80378 12.5763 5.58786 12.6586 5.42867 12.8051C5.26947 12.9515 5.18003 13.1502 5.18003 13.3573C5.18003 13.5644 5.26947 13.7631 5.42867 13.9095C5.58786 14.056 5.80378 14.1383 6.02893 14.1383C6.25407 14.1383 6.46999 14.056 6.62919 13.9095C6.78838 13.7631 6.87782 13.5644 6.87782 13.3573C6.87782 13.1502 6.78838 12.9515 6.62919 12.8051C6.46999 12.6586 6.25407 12.5763 6.02893 12.5763ZM15.3668 2.42352H3.71144L5.87612 7.10943H12.8201C13.1002 7.10943 13.3464 6.98447 13.4992 6.79704L16.0459 3.6731C16.1563 3.54033 16.2157 3.37632 16.2157 3.20451C16.2157 2.99738 16.1262 2.79873 15.967 2.65227C15.8078 2.5058 15.5919 2.42352 15.3668 2.42352ZM12.8201 7.89041H5.91857L5.26492 9.10875L5.18003 9.45238C5.18003 9.65951 5.26947 9.85816 5.42867 10.0046C5.58786 10.1511 5.80378 10.2334 6.02893 10.2334H15.3668V11.0144H6.02893C5.57864 11.0144 5.1468 10.8498 4.8284 10.5569C4.51001 10.2639 4.33113 9.86664 4.33113 9.45238C4.33088 9.18739 4.40391 8.9267 4.54336 8.69483L5.15456 7.54678L2.07307 0.861551H0.935547V0.0805664H2.63334L3.3549 1.64254H15.3668C15.8171 1.64254 16.2489 1.8071 16.5673 2.10003C16.8857 2.39295 17.0646 2.79025 17.0646 3.20451C17.0646 3.595 16.9203 3.92301 16.6826 4.18855L14.2123 7.22658C13.9067 7.62488 13.3973 7.89041 12.8201 7.89041Z" fill="white"/>
</svg>
