<svg width="26" height="23" viewBox="0 0 26 23" fill="none" xmlns="http://www.w3.org/2000/svg">
<rect width="26" height="23" fill="#F5F5F5"/>
<rect width="1920" height="3749" transform="translate(-1737 -59)" fill="#F3F3F3"/>
<rect x="-1654" y="-41" width="1754" height="106" rx="53" fill="white" fill-opacity="0.8"/>
<rect x="-6.5" y="-8" width="39" height="39" rx="3.5" stroke="#73C167"/>
<path d="M20.2368 18.1579C20.9348 18.1579 21.6041 18.413 22.0976 18.867C22.5912 19.321 22.8684 19.9368 22.8684 20.5789C22.8684 21.2211 22.5912 21.8369 22.0976 22.2909C21.6041 22.7449 20.9348 23 20.2368 23C19.5389 23 18.8696 22.7449 18.376 22.2909C17.8825 21.8369 17.6053 21.2211 17.6053 20.5789C17.6053 19.9368 17.8825 19.321 18.376 18.867C18.8696 18.413 19.5389 18.1579 20.2368 18.1579ZM20.2368 19.3684C19.8879 19.3684 19.5532 19.496 19.3064 19.723C19.0597 19.95 18.9211 20.2579 18.9211 20.5789C18.9211 20.9 19.0597 21.2079 19.3064 21.4349C19.5532 21.6619 19.8879 21.7895 20.2368 21.7895C20.5858 21.7895 20.9205 21.6619 21.1672 21.4349C21.414 21.2079 21.5526 20.9 21.5526 20.5789C21.5526 20.2579 21.414 19.95 21.1672 19.723C20.9205 19.496 20.5858 19.3684 20.2368 19.3684ZM8.39474 18.1579C9.09268 18.1579 9.76203 18.413 10.2555 18.867C10.7491 19.321 11.0263 19.9368 11.0263 20.5789C11.0263 21.2211 10.7491 21.8369 10.2555 22.2909C9.76203 22.7449 9.09268 23 8.39474 23C7.6968 23 7.02745 22.7449 6.53393 22.2909C6.04041 21.8369 5.76316 21.2211 5.76316 20.5789C5.76316 19.9368 6.04041 19.321 6.53393 18.867C7.02745 18.413 7.6968 18.1579 8.39474 18.1579ZM8.39474 19.3684C8.04577 19.3684 7.71109 19.496 7.46433 19.723C7.21758 19.95 7.07895 20.2579 7.07895 20.5789C7.07895 20.9 7.21758 21.2079 7.46433 21.4349C7.71109 21.6619 8.04577 21.7895 8.39474 21.7895C8.74371 21.7895 9.07838 21.6619 9.32514 21.4349C9.5719 21.2079 9.71053 20.9 9.71053 20.5789C9.71053 20.2579 9.5719 19.95 9.32514 19.723C9.07838 19.496 8.74371 19.3684 8.39474 19.3684ZM22.8684 3.63158H4.80263L8.1579 10.8947H18.9211C19.3553 10.8947 19.7368 10.7011 19.9737 10.4105L23.9211 5.56842C24.0921 5.36263 24.1842 5.10842 24.1842 4.84211C24.1842 4.52105 24.0456 4.21315 23.7988 3.98613C23.5521 3.75912 23.2174 3.63158 22.8684 3.63158ZM18.9211 12.1053H8.22368L7.21053 13.9937L7.07895 14.5263C7.07895 14.8474 7.21758 15.1553 7.46433 15.3823C7.71109 15.6093 8.04577 15.7368 8.39474 15.7368H22.8684V16.9474H8.39474C7.6968 16.9474 7.02745 16.6923 6.53393 16.2383C6.04041 15.7842 5.76316 15.1684 5.76316 14.5263C5.76277 14.1156 5.87597 13.7115 6.09211 13.3521L7.03947 11.5726L2.26316 1.21053H0.5V0H3.13158L4.25 2.42105H22.8684C23.5664 2.42105 24.2357 2.67613 24.7292 3.13016C25.2227 3.5842 25.5 4.2 25.5 4.84211C25.5 5.44737 25.2763 5.95579 24.9079 6.36737L21.0789 11.0763C20.6053 11.6937 19.8158 12.1053 18.9211 12.1053Z" fill="#73C167"/>
</svg>
