<svg width="17" height="18" viewBox="0 0 17 18" fill="none" xmlns="http://www.w3.org/2000/svg">
<path d="M10.5365 17.9371C10.3539 17.9362 10.175 17.8862 10.0185 17.7921L6.68451 15.7921C6.30946 15.5658 5.999 15.2467 5.78304 14.8656C5.56709 14.4845 5.45291 14.0542 5.45151 13.6161V9.09111C5.45242 8.77171 5.35309 8.46007 5.16751 8.20011L0.512512 1.65811C0.403815 1.50709 0.338951 1.32897 0.325077 1.14342C0.311204 0.957862 0.348859 0.77208 0.43389 0.606571C0.51892 0.441062 0.648019 0.302259 0.806943 0.205478C0.965868 0.108698 1.14844 0.0577005 1.33451 0.0581142H15.6645C15.8507 0.0573383 16.0335 0.108113 16.1927 0.204817C16.3518 0.30152 16.4811 0.44038 16.5662 0.606022C16.6513 0.771663 16.6889 0.957624 16.6748 1.14331C16.6608 1.329 16.5956 1.50718 16.4865 1.65811L11.8315 8.20011C11.6456 8.45998 11.546 8.77161 11.5465 9.09111V16.9251C11.5462 17.1931 11.4398 17.45 11.2505 17.6397C11.0612 17.8294 10.8045 17.9363 10.5365 17.9371ZM1.33451 1.06311L5.98151 7.62011C6.28856 8.04903 6.45298 8.56363 6.45151 9.09111V13.6151C6.45217 13.8805 6.52127 14.1412 6.65212 14.3721C6.78298 14.603 6.97117 14.7962 7.19851 14.9331L10.5325 16.9331L10.5465 9.09011C10.5454 8.56253 10.7102 8.04794 11.0175 7.61911L15.6715 1.07711L1.33451 1.06311Z" fill="white"/>
</svg>
