<svg width="28" height="28" viewBox="0 0 28 28" fill="none" xmlns="http://www.w3.org/2000/svg">
<rect x="0.5" y="0.5" width="27" height="27" rx="3.5" fill="#73C167"/>
<rect x="0.5" y="0.5" width="27" height="27" rx="3.5" stroke="#73C167"/>
<path d="M18.2441 19.5161H18.172C9.83725 19.0367 8.65384 12.0015 8.48842 9.85442C8.47509 9.68748 8.49482 9.51956 8.54647 9.36026C8.59813 9.20097 8.6807 9.05343 8.78945 8.92612C8.8982 8.7988 9.031 8.6942 9.18023 8.61831C9.32946 8.54242 9.49219 8.49674 9.6591 8.48387H11.9962C12.1661 8.48371 12.3322 8.53458 12.4728 8.62991C12.6135 8.72523 12.7223 8.86061 12.7852 9.01851L13.4299 10.6055C13.492 10.7597 13.5074 10.9288 13.4742 11.0918C13.441 11.2547 13.3607 11.4043 13.2433 11.522L12.3398 12.4343C12.4809 13.2365 12.865 13.9761 13.44 14.5529C14.0151 15.1296 14.7533 15.5158 15.5549 15.6591L16.4754 14.7468C16.5948 14.6306 16.7457 14.5521 16.9094 14.5212C17.0731 14.4903 17.2423 14.5082 17.3958 14.5728L18.9949 15.2136C19.1504 15.2784 19.283 15.3881 19.3759 15.5287C19.4688 15.6692 19.5178 15.8343 19.5166 16.0028V18.2432C19.5166 18.5808 19.3825 18.9046 19.1439 19.1433C18.9053 19.382 18.5816 19.5161 18.2441 19.5161ZM9.7609 9.33251C9.6484 9.33251 9.54052 9.37721 9.46097 9.45679C9.38143 9.53636 9.33674 9.64429 9.33674 9.75682V9.79077C9.53185 12.3027 10.7831 18.2432 18.2187 18.6675C18.2744 18.6709 18.3303 18.6633 18.383 18.6452C18.4358 18.627 18.4845 18.5985 18.5263 18.5615C18.568 18.5244 18.6021 18.4795 18.6265 18.4292C18.6508 18.379 18.665 18.3244 18.6683 18.2686V16.0028L17.0692 15.3621L15.8519 16.5714L15.6483 16.5459C11.9581 16.0834 11.4575 12.3918 11.4575 12.3536L11.4321 12.15L12.6367 10.9322L12.0005 9.33251H9.7609Z" fill="white"/>
</svg>
