<svg width="18" height="18" viewBox="0 0 18 18" fill="none" xmlns="http://www.w3.org/2000/svg">
<path fill-rule="evenodd" clip-rule="evenodd" d="M17.7601 1.39833C17.8361 1.32227 17.8965 1.23197 17.9376 1.13259C17.9788 1.03321 18 0.92669 18 0.819121C18 0.711553 17.9788 0.605038 17.9376 0.505657C17.8965 0.406277 17.8361 0.315977 17.7601 0.239915C17.684 0.163852 17.5937 0.103517 17.4943 0.062352C17.395 0.0211873 17.2884 0 17.1809 0C17.0733 0 16.9668 0.0211873 16.8674 0.062352C16.768 0.103517 16.6777 0.163852 16.6017 0.239915L9 7.84322L1.39833 0.239915C1.32227 0.163852 1.23197 0.103517 1.13259 0.062352C1.03321 0.0211873 0.92669 8.01448e-10 0.819121 0C0.711553 -8.01448e-10 0.605038 0.0211873 0.505657 0.062352C0.406277 0.103517 0.315977 0.163852 0.239915 0.239915C0.163852 0.315977 0.103517 0.406277 0.062352 0.505657C0.0211873 0.605038 -8.01448e-10 0.711553 0 0.819121C8.01448e-10 0.92669 0.0211873 1.03321 0.062352 1.13259C0.103517 1.23197 0.163852 1.32227 0.239915 1.39833L7.84322 9L0.239915 16.6017C0.0862998 16.7553 0 16.9636 0 17.1809C0 17.3981 0.0862998 17.6065 0.239915 17.7601C0.39353 17.9137 0.601877 18 0.819121 18C1.03637 18 1.24471 17.9137 1.39833 17.7601L9 10.1568L16.6017 17.7601C16.7553 17.9137 16.9636 18 17.1809 18C17.3981 18 17.6065 17.9137 17.7601 17.7601C17.9137 17.6065 18 17.3981 18 17.1809C18 16.9636 17.9137 16.7553 17.7601 16.6017L10.1568 9L17.7601 1.39833Z" fill="#636363"/>
</svg>
