<svg width="80" height="80" viewBox="0 0 80 80" fill="none" xmlns="http://www.w3.org/2000/svg">
<path d="M67.5001 16.25H12.5001C11.5055 16.25 10.5517 16.6451 9.84842 17.3483C9.14516 18.0516 8.75007 19.0054 8.75007 20V70C8.74563 70.715 8.94759 71.4161 9.33173 72.0192C9.71586 72.6223 10.2658 73.1017 10.9157 73.4C11.4125 73.6293 11.9529 73.7487 12.5001 73.75C13.3806 73.7493 14.2322 73.4358 14.9032 72.8656L14.9219 72.8469L24.9657 64.0438C25.1938 63.8517 25.4831 63.7475 25.7813 63.75H67.5001C68.4946 63.75 69.4485 63.3549 70.1517 62.6516C70.855 61.9484 71.2501 60.9946 71.2501 60V20C71.2501 19.0054 70.855 18.0516 70.1517 17.3483C69.4485 16.6451 68.4946 16.25 67.5001 16.25ZM68.7501 60C68.7501 60.3315 68.6184 60.6495 68.384 60.8839C68.1495 61.1183 67.8316 61.25 67.5001 61.25H25.7813C24.8895 61.2525 24.0272 61.5702 23.3469 62.1469L13.2969 70.9594C13.1144 71.1104 12.8928 71.2065 12.6577 71.2363C12.4227 71.2662 12.1841 71.2287 11.9696 71.1282C11.7551 71.0276 11.5735 70.8682 11.4462 70.6685C11.3188 70.4687 11.2508 70.2369 11.2501 70V20C11.2501 19.6685 11.3818 19.3505 11.6162 19.1161C11.8506 18.8817 12.1686 18.75 12.5001 18.75H67.5001C67.8316 18.75 68.1495 18.8817 68.384 19.1161C68.6184 19.3505 68.7501 19.6685 68.7501 20V60ZM51.2501 35C51.2501 35.3315 51.1184 35.6495 50.884 35.8839C50.6495 36.1183 50.3316 36.25 50.0001 36.25H30.0001C29.6686 36.25 29.3506 36.1183 29.1162 35.8839C28.8818 35.6495 28.7501 35.3315 28.7501 35C28.7501 34.6685 28.8818 34.3505 29.1162 34.1161C29.3506 33.8817 29.6686 33.75 30.0001 33.75H50.0001C50.3316 33.75 50.6495 33.8817 50.884 34.1161C51.1184 34.3505 51.2501 34.6685 51.2501 35ZM51.2501 45C51.2501 45.3315 51.1184 45.6495 50.884 45.8839C50.6495 46.1183 50.3316 46.25 50.0001 46.25H30.0001C29.6686 46.25 29.3506 46.1183 29.1162 45.8839C28.8818 45.6495 28.7501 45.3315 28.7501 45C28.7501 44.6685 28.8818 44.3505 29.1162 44.1161C29.3506 43.8817 29.6686 43.75 30.0001 43.75H50.0001C50.3316 43.75 50.6495 43.8817 50.884 44.1161C51.1184 44.3505 51.2501 44.6685 51.2501 45Z" fill="#73C167"/>
</svg>
