<svg width="80" height="80" viewBox="0 0 80 80" fill="none" xmlns="http://www.w3.org/2000/svg">
<path fill-rule="evenodd" clip-rule="evenodd" d="M10 12.5C9.33696 12.5 8.70107 12.7634 8.23223 13.2322C7.76339 13.7011 7.5 14.337 7.5 15V20C7.5 20.663 7.76339 21.2989 8.23223 21.7678C8.70107 22.2366 9.33696 22.5 10 22.5H15C15.663 22.5 16.2989 22.2366 16.7678 21.7678C17.2366 21.2989 17.5 20.663 17.5 20V15C17.5 14.337 17.2366 13.7011 16.7678 13.2322C16.2989 12.7634 15.663 12.5 15 12.5H10ZM15 15H10V20H15V15Z" fill="#73C167"/>
<path d="M25 17.5C25 16.837 25.2634 16.2011 25.7322 15.7322C26.2011 15.2634 26.837 15 27.5 15H72.5C73.163 15 73.7989 15.2634 74.2678 15.7322C74.7366 16.2011 75 16.837 75 17.5C75 18.163 74.7366 18.7989 74.2678 19.2678C73.7989 19.7366 73.163 20 72.5 20H27.5C26.837 20 26.2011 19.7366 25.7322 19.2678C25.2634 18.7989 25 18.163 25 17.5ZM27.5 35C26.837 35 26.2011 35.2634 25.7322 35.7322C25.2634 36.2011 25 36.837 25 37.5C25 38.163 25.2634 38.7989 25.7322 39.2678C26.2011 39.7366 26.837 40 27.5 40H72.5C73.163 40 73.7989 39.7366 74.2678 39.2678C74.7366 38.7989 75 38.163 75 37.5C75 36.837 74.7366 36.2011 74.2678 35.7322C73.7989 35.2634 73.163 35 72.5 35H27.5ZM27.5 55C26.837 55 26.2011 55.2634 25.7322 55.7322C25.2634 56.2011 25 56.837 25 57.5C25 58.163 25.2634 58.7989 25.7322 59.2678C26.2011 59.7366 26.837 60 27.5 60H72.5C73.163 60 73.7989 59.7366 74.2678 59.2678C74.7366 58.7989 75 58.163 75 57.5C75 56.837 74.7366 56.2011 74.2678 55.7322C73.7989 55.2634 73.163 55 72.5 55H27.5Z" fill="#73C167"/>
<path fill-rule="evenodd" clip-rule="evenodd" d="M7.5 35C7.5 34.337 7.76339 33.7011 8.23223 33.2322C8.70107 32.7634 9.33696 32.5 10 32.5H15C15.663 32.5 16.2989 32.7634 16.7678 33.2322C17.2366 33.7011 17.5 34.337 17.5 35V40C17.5 40.663 17.2366 41.2989 16.7678 41.7678C16.2989 42.2366 15.663 42.5 15 42.5H10C9.33696 42.5 8.70107 42.2366 8.23223 41.7678C7.76339 41.2989 7.5 40.663 7.5 40V35ZM10 35H15V40H10V35ZM10 52.5C9.33696 52.5 8.70107 52.7634 8.23223 53.2322C7.76339 53.7011 7.5 54.337 7.5 55V60C7.5 60.663 7.76339 61.2989 8.23223 61.7678C8.70107 62.2366 9.33696 62.5 10 62.5H15C15.663 62.5 16.2989 62.2366 16.7678 61.7678C17.2366 61.2989 17.5 60.663 17.5 60V55C17.5 54.337 17.2366 53.7011 16.7678 53.2322C16.2989 52.7634 15.663 52.5 15 52.5H10ZM15 55H10V60H15V55Z" fill="#73C167"/>
</svg>
