<svg width="22" height="20" viewBox="0 0 22 20" fill="none" xmlns="http://www.w3.org/2000/svg">
<path fill-rule="evenodd" clip-rule="evenodd" d="M0.5 6.47012C0.5 3.15079 3.2705 0.500577 6.63777 0.5C8.47536 0.5 10.1247 1.2886 11.2499 2.53864C12.3752 1.28826 14.0245 0.5 15.8621 0.5C19.2296 0.5 22 3.1509 22 6.47012C22 7.22512 21.8505 7.94284 21.5907 8.6021C20.6282 11.2712 18.0934 13.9771 15.9049 15.9611C14.7928 16.9692 13.7387 17.8184 12.9629 18.4155C12.5747 18.7143 12.2552 18.9507 12.032 19.1129C11.9204 19.194 11.8327 19.2567 11.7725 19.2994L11.7031 19.3483L11.6846 19.3613L11.6781 19.3658C11.678 19.3659 11.6774 19.3663 11.25 18.75C10.8226 19.3663 10.8225 19.3662 10.8223 19.3661L10.8154 19.3613L10.7969 19.3483L10.7275 19.2994C10.6673 19.2567 10.5796 19.194 10.468 19.1129C10.2448 18.9507 9.92534 18.7143 9.5371 18.4155C8.76127 17.8184 7.70722 16.9692 6.59514 15.961C4.40672 13.9771 1.87209 11.2713 0.909788 8.6021C0.650174 7.94324 0.5 7.22552 0.5 6.47012ZM11.25 18.75L10.8223 19.3661C11.0794 19.5444 11.4211 19.544 11.6781 19.3658L11.25 18.75ZM11.25 17.8267C11.4554 17.6762 11.727 17.4739 12.048 17.2268C12.8011 16.6473 13.8226 15.8242 14.8975 14.8497C17.0798 12.8714 19.3604 10.3757 20.183 8.0839C20.1858 8.0762 20.1887 8.06853 20.1917 8.06092C20.3891 7.56287 20.5 7.02823 20.5 6.47012C20.5 4.02365 18.4462 2 15.8621 2C14.1667 2 12.6956 2.87822 11.8867 4.17743C11.7498 4.39733 11.5091 4.53101 11.2501 4.53103C10.991 4.53105 10.7503 4.3974 10.6134 4.17753C9.80442 2.87867 8.33328 2.00004 6.63802 2M11.25 17.8267C11.0446 17.6762 10.773 17.4739 10.452 17.2268C9.69896 16.6473 8.67746 15.8242 7.60262 14.8497C5.42037 12.8714 3.13992 10.3758 2.3175 8.08397C2.31473 8.07624 2.31183 8.06856 2.3088 8.06092C2.11122 7.56247 2 7.02782 2 6.47012C2 4.02381 4.05377 2.00051 6.63802 2" fill="#73C167"/>
</svg>
